<svg xmlns="http://www.w3.org/2000/svg" fill="none" viewBox="0 0 142 51" height="51" width="142">
<g id="BRĒZ Logo">
<path fill="black" d="M85.5111 0.983066V0H98.2276V0.983066H85.5111ZM78.3997 16.9803C78.3997 8.17736 78.1318 5.00474 74.2914 5.00474V4.55789H106.265V10.5903H105.818V10.4116C105.818 7.41772 99.9238 5.00474 89.653 5.00474H82.2401V24.2192C83.5798 22.9234 85.366 22.1637 87.4202 22.1637C89.6957 22.1637 91.4507 22.8977 93.154 23.6101C94.7599 24.2817 96.3199 24.9342 98.2269 24.9342C99.9238 24.9342 101.531 23.9511 101.531 22.3871H101.978C101.978 25.0235 99.7898 27.3025 96.262 27.3025C93.1398 27.3025 91.0589 26.0403 89.2545 24.9459C87.9103 24.1306 86.7196 23.4084 85.366 23.3702C84.071 23.3255 82.9546 23.9958 82.2401 24.9342V48.7959H87.956C92.1983 48.7959 105.818 48.3043 105.818 41.8697H106.265V49.2427H74.2914V48.7959C78.1318 48.7959 78.3997 45.6232 78.3997 36.8203V16.9803ZM0 4.68022V5.12639C3.83315 5.12639 4.10058 8.29421 4.10058 17.0838V36.8938C4.10058 45.6833 3.83315 48.8511 0 48.8511V49.2973H5.34859C7.76748 49.2973 9.76326 49.5145 11.7855 49.7346C13.8622 49.9606 15.9669 50.1896 18.5863 50.1896C28.0801 50.1896 33.3841 45.0141 33.3841 37.2953C33.3841 30.5135 27.8127 26.141 20.9932 26.141C18.4178 26.141 16.2622 27.127 14.5459 27.9121C13.4107 28.4313 12.4676 28.8627 11.7223 28.8627C11.1875 28.8627 10.4297 28.7288 10.4297 27.7026C10.4297 25.7478 13.5687 24.7036 17.3686 23.4395C23.1953 21.5012 30.5761 19.0459 30.5761 11.9974C30.5761 5.75103 24.8264 3.78788 18.5418 3.78788C16.5806 3.78788 14.2183 4.01097 11.856 4.23405C9.49374 4.45714 7.13145 4.68022 5.1703 4.68022H0ZM7.88918 5.66176C10.4743 4.85866 13.0595 4.41249 15.9566 4.41249C21.3944 4.41249 26.743 6.55411 26.743 12.0866C26.743 17.0789 21.6008 19.566 17.0132 21.7848C13.3188 23.5717 9.98404 25.1846 9.98404 27.7918C9.98404 28.8626 10.7418 29.3088 11.544 29.3088C12.7431 29.3088 14.0255 28.7523 15.4209 28.1467C17.0859 27.4242 18.9117 26.6318 20.9487 26.6318C26.5201 26.6318 29.551 32.2535 29.551 37.6076C29.551 45.014 24.3361 49.565 16.0458 49.565C12.7475 49.565 10.608 49.1188 7.88918 48.1372V5.66176ZM47.259 49.2427H35.2649V48.797C39.0995 48.797 39.367 45.633 39.367 36.854V17.0678C39.367 8.2888 39.0995 5.12479 35.2649 5.12479V4.67915H40.6154C43.0352 4.67915 45.0317 4.46221 47.0547 4.24239C49.1322 4.01665 51.2376 3.78788 53.858 3.78788C63.3552 3.78788 68.6612 9.04638 68.6612 16.3102C68.6612 22.4154 63.6673 27.9413 55.9091 27.9413C53.397 27.9413 51.3654 26.9167 49.7376 26.0958C48.6495 25.547 47.7418 25.0892 46.9915 25.0892C46.4564 25.0892 45.6985 25.2229 45.6985 26.2479C45.6985 27.5743 47.6712 28.4242 50.1568 29.4949C53.0993 30.7625 56.7603 32.3396 58.7181 35.3834C59.1859 36.1113 59.6646 36.8824 60.1551 37.6724C63.3583 42.8316 67.0622 48.797 71.4702 48.797V49.2427H64.6483C63.0497 49.2427 61.9387 47.5373 58.191 41.7845L58.1909 41.7845L58.1908 41.7843C57.13 40.156 55.858 38.2035 54.3039 35.8736C52.0785 32.5259 49.7469 30.8535 48.0076 29.6059C46.3665 28.4288 45.2526 27.6299 45.2526 26.1588C45.2526 25.0892 46.0106 24.6436 46.8132 24.6436C47.9795 24.6436 49.0319 25.1429 50.2035 25.6988C51.6745 26.3967 53.3333 27.1837 55.6415 27.1837C61.215 27.1837 64.8266 21.7024 64.8266 16.3548C64.8266 8.95725 59.6099 4.41177 51.3165 4.41177C48.017 4.41177 45.8768 4.85741 43.157 5.8378V36.854C43.157 45.633 43.4245 48.797 47.259 48.797V49.2427ZM140.798 41.8988V49.2426H109.556L137.416 5.17983H124.732C117.078 5.17983 111.559 7.58325 111.559 10.5653V10.7433H111.114V4.73475H142L114.14 48.7975H120.504C124.732 48.7975 140.353 48.3079 140.353 41.8988H140.798Z" clip-rule="evenodd" fill-rule="evenodd" id="Combined Shape"></path>
<mask height="51" width="142" y="0" x="0" maskUnits="userSpaceOnUse" style="mask-type:luminance" id="mask0_1120_1117">
<path fill="white" d="M85.5111 0.983066V0H98.2276V0.983066H85.5111ZM78.3997 16.9803C78.3997 8.17736 78.1318 5.00474 74.2914 5.00474V4.55789H106.265V10.5903H105.818V10.4116C105.818 7.41772 99.9238 5.00474 89.653 5.00474H82.2401V24.2192C83.5798 22.9234 85.366 22.1637 87.4202 22.1637C89.6957 22.1637 91.4507 22.8977 93.154 23.6101C94.7599 24.2817 96.3199 24.9342 98.2269 24.9342C99.9238 24.9342 101.531 23.9511 101.531 22.3871H101.978C101.978 25.0235 99.7898 27.3025 96.262 27.3025C93.1398 27.3025 91.0589 26.0403 89.2545 24.9459C87.9103 24.1306 86.7196 23.4084 85.366 23.3702C84.071 23.3255 82.9546 23.9958 82.2401 24.9342V48.7959H87.956C92.1983 48.7959 105.818 48.3043 105.818 41.8697H106.265V49.2427H74.2914V48.7959C78.1318 48.7959 78.3997 45.6232 78.3997 36.8203V16.9803ZM0 4.68022V5.12639C3.83315 5.12639 4.10058 8.29421 4.10058 17.0838V36.8938C4.10058 45.6833 3.83315 48.8511 0 48.8511V49.2973H5.34859C7.76748 49.2973 9.76326 49.5145 11.7855 49.7346C13.8622 49.9606 15.9669 50.1896 18.5863 50.1896C28.0801 50.1896 33.3841 45.0141 33.3841 37.2953C33.3841 30.5135 27.8127 26.141 20.9932 26.141C18.4178 26.141 16.2622 27.127 14.5459 27.9121C13.4107 28.4313 12.4676 28.8627 11.7223 28.8627C11.1875 28.8627 10.4297 28.7288 10.4297 27.7026C10.4297 25.7478 13.5687 24.7036 17.3686 23.4395C23.1953 21.5012 30.5761 19.0459 30.5761 11.9974C30.5761 5.75103 24.8264 3.78788 18.5418 3.78788C16.5806 3.78788 14.2183 4.01097 11.856 4.23405C9.49374 4.45714 7.13145 4.68022 5.1703 4.68022H0ZM7.88918 5.66176C10.4743 4.85866 13.0595 4.41249 15.9566 4.41249C21.3944 4.41249 26.743 6.55411 26.743 12.0866C26.743 17.0789 21.6008 19.566 17.0132 21.7848C13.3188 23.5717 9.98404 25.1846 9.98404 27.7918C9.98404 28.8626 10.7418 29.3088 11.544 29.3088C12.7431 29.3088 14.0255 28.7523 15.4209 28.1467C17.0859 27.4242 18.9117 26.6318 20.9487 26.6318C26.5201 26.6318 29.551 32.2535 29.551 37.6076C29.551 45.014 24.3361 49.565 16.0458 49.565C12.7475 49.565 10.608 49.1188 7.88918 48.1372V5.66176ZM47.259 49.2427H35.2649V48.797C39.0995 48.797 39.367 45.633 39.367 36.854V17.0678C39.367 8.2888 39.0995 5.12479 35.2649 5.12479V4.67915H40.6154C43.0352 4.67915 45.0317 4.46221 47.0547 4.24239C49.1322 4.01665 51.2376 3.78788 53.858 3.78788C63.3552 3.78788 68.6612 9.04638 68.6612 16.3102C68.6612 22.4154 63.6673 27.9413 55.9091 27.9413C53.397 27.9413 51.3654 26.9167 49.7376 26.0958C48.6495 25.547 47.7418 25.0892 46.9915 25.0892C46.4564 25.0892 45.6985 25.2229 45.6985 26.2479C45.6985 27.5743 47.6712 28.4242 50.1568 29.4949C53.0993 30.7625 56.7603 32.3396 58.7181 35.3834C59.1859 36.1113 59.6646 36.8824 60.1551 37.6724C63.3583 42.8316 67.0622 48.797 71.4702 48.797V49.2427H64.6483C63.0497 49.2427 61.9387 47.5373 58.191 41.7845L58.1909 41.7845L58.1908 41.7843C57.13 40.156 55.858 38.2035 54.3039 35.8736C52.0785 32.5259 49.7469 30.8535 48.0076 29.6059C46.3665 28.4288 45.2526 27.6299 45.2526 26.1588C45.2526 25.0892 46.0106 24.6436 46.8132 24.6436C47.9795 24.6436 49.0319 25.1429 50.2035 25.6988C51.6745 26.3967 53.3333 27.1837 55.6415 27.1837C61.215 27.1837 64.8266 21.7024 64.8266 16.3548C64.8266 8.95725 59.6099 4.41177 51.3165 4.41177C48.017 4.41177 45.8768 4.85741 43.157 5.8378V36.854C43.157 45.633 43.4245 48.797 47.259 48.797V49.2427ZM140.798 41.8988V49.2426H109.556L137.416 5.17983H124.732C117.078 5.17983 111.559 7.58325 111.559 10.5653V10.7433H111.114V4.73475H142L114.14 48.7975H120.504C124.732 48.7975 140.353 48.3079 140.353 41.8988H140.798Z" clip-rule="evenodd" fill-rule="evenodd" id="Combined Shape_2"></path>
</mask>
<g mask="url(#mask0_1120_1117)">
</g>
</g>
</svg>
